<svg preserveAspectRatio="none" width="100%" height="100%" overflow="visible" style="display: block;" viewBox="0 0 100 100" fill="none" xmlns="http://www.w3.org/2000/svg">
<g id="Laag_3" clip-path="url(#clip0_0_12)">
<path id="Vector" d="M100 0H0V100H100V0Z" fill="var(--fill-0, #010101)"/>
<g id="Group">
<path id="Vector_2" d="M15.386 13.8596H18.1228L16.7368 23.7544H21.807L21.4561 26.2807H13.6491L15.386 13.8596Z" fill="var(--fill-0, white)"/>
<path id="Vector_3" d="M30.8947 24.807C30.4035 25.3465 29.8158 25.7588 29.1316 26.0526C28.4474 26.3465 27.7588 26.4912 27.0702 26.4912C26.3816 26.4912 25.8114 26.386 25.2632 26.1754C24.7149 25.9649 24.2544 25.6623 23.886 25.2719C23.5175 24.8816 23.25 24.4079 23.0789 23.8596C22.9079 23.3114 22.8728 22.6974 22.9649 22.0175C23.057 21.3377 23.2675 20.7237 23.5877 20.1754C23.9079 19.6272 24.3114 19.1535 24.7895 18.7632C25.2675 18.3728 25.8114 18.0702 26.4211 17.8596C27.0307 17.6491 27.6623 17.5439 28.3158 17.5439C28.9254 17.5439 29.4605 17.6491 29.9298 17.8596C30.3991 18.0702 30.7763 18.3728 31.0702 18.7632C31.364 19.1535 31.5658 19.6272 31.6754 20.1754C31.7851 20.7237 31.7939 21.3377 31.7018 22.0175L31.5789 22.8421H25.4737C25.5088 23.3465 25.6798 23.7456 25.9912 24.0439C26.3026 24.3421 26.7149 24.4912 27.2281 24.4912C27.6623 24.4912 28.0395 24.3947 28.3597 24.2018C28.6798 24.0088 28.9781 23.7588 29.2456 23.4561L30.8947 24.807ZM29.193 21.0526C29.2632 20.6096 29.1711 20.2281 28.9123 19.9123C28.6535 19.5965 28.2851 19.4386 27.807 19.4386C27.5132 19.4386 27.25 19.4868 27.0175 19.5789C26.7851 19.6711 26.5789 19.7939 26.4035 19.9386C26.2281 20.0833 26.0833 20.2544 25.9649 20.4474C25.8465 20.6404 25.7675 20.8421 25.7193 21.0526H29.193Z" fill="var(--fill-0, white)"/>
<path id="Vector_4" d="M33.8947 17.7544H36.4211L36.2632 18.9123H36.2982C36.4035 18.75 36.5439 18.5833 36.7193 18.4211C36.8947 18.2588 37.0921 18.1096 37.3158 17.9825C37.5395 17.8553 37.7895 17.75 38.0702 17.6667C38.3509 17.5833 38.6491 17.5439 38.9649 17.5439C39.5614 17.5439 40.0746 17.6667 40.5088 17.9123C40.943 18.1579 41.2325 18.5439 41.386 19.0702C41.7719 18.5219 42.1974 18.1272 42.6579 17.8947C43.1184 17.6623 43.6667 17.5439 44.2982 17.5439C44.8728 17.5439 45.3377 17.6404 45.7018 17.8333C46.0658 18.0263 46.3377 18.2895 46.5263 18.6228C46.7149 18.9561 46.8246 19.3465 46.8596 19.7982C46.8947 20.25 46.8772 20.7325 46.807 21.2456L46.1053 26.2807H43.4737L44.1579 21.3158C44.2149 20.9167 44.1798 20.5746 44.0526 20.2895C43.9254 20.0044 43.6447 19.8596 43.2105 19.8596C42.9079 19.8596 42.6447 19.9079 42.4298 20.0088C42.2149 20.1096 42.0307 20.2456 41.8772 20.4211C41.7237 20.5965 41.6096 20.8026 41.5263 21.0351C41.443 21.2675 41.386 21.5132 41.3509 21.7719L40.7193 26.2807H38.0877L38.7193 21.7719C38.7412 21.6184 38.7632 21.4342 38.7807 21.2105C38.7982 20.9868 38.7851 20.7763 38.7456 20.5789C38.7061 20.3816 38.614 20.2105 38.4737 20.0702C38.3333 19.9298 38.1096 19.8596 37.807 19.8596C37.4693 19.8596 37.1842 19.9211 36.9561 20.0439C36.7281 20.1667 36.5439 20.3289 36.4035 20.5351C36.2632 20.7412 36.1579 20.9693 36.0877 21.2281C36.0175 21.4868 35.9649 21.7544 35.9298 22.0351L35.3333 26.2807H32.7018L33.8947 17.7544Z" fill="var(--fill-0, white)"/>
<path id="Vector_5" d="M48.2456 22.0175C48.3377 21.3377 48.5482 20.7237 48.8684 20.1754C49.1886 19.6272 49.5921 19.1535 50.0702 18.7632C50.5482 18.3728 51.0921 18.0702 51.7018 17.8596C52.3114 17.6491 52.943 17.5439 53.5965 17.5439C54.25 17.5439 54.8553 17.6491 55.4035 17.8596C55.9518 18.0702 56.4167 18.3728 56.7895 18.7632C57.1623 19.1535 57.4342 19.6272 57.6053 20.1754C57.7763 20.7237 57.8114 21.3377 57.7193 22.0175C57.6272 22.6974 57.4167 23.3114 57.0877 23.8596C56.7588 24.4079 56.3553 24.8816 55.8772 25.2719C55.3991 25.6623 54.8553 25.9649 54.2456 26.1754C53.636 26.386 53.0044 26.4912 52.3509 26.4912C51.6974 26.4912 51.0921 26.386 50.5439 26.1754C49.9956 25.9649 49.5351 25.6623 49.1667 25.2719C48.7982 24.8816 48.5307 24.4079 48.3596 23.8596C48.1886 23.3114 48.1535 22.6974 48.2456 22.0175ZM50.8772 22.0175C50.7851 22.6623 50.8903 23.1798 51.2018 23.5789C51.5132 23.9781 52 24.1754 52.6667 24.1754C53.3333 24.1754 53.8816 23.9781 54.307 23.5789C54.7325 23.1798 54.9956 22.6623 55.0877 22.0175C55.1798 21.3728 55.0702 20.8553 54.7544 20.4561C54.4386 20.057 53.9474 19.8596 53.2807 19.8596C52.614 19.8596 52.0702 20.057 51.6491 20.4561C51.2281 20.8553 50.9693 21.3728 50.8772 22.0175Z" fill="var(--fill-0, white)"/>
<path id="Vector_6" d="M59.8596 17.7544H62.386L62.2281 18.9123H62.2632C62.3684 18.75 62.5088 18.5833 62.6842 18.4211C62.8596 18.2588 63.057 18.1096 63.2807 17.9825C63.5044 17.8553 63.7544 17.75 64.0351 17.6667C64.3158 17.5833 64.614 17.5439 64.9298 17.5439C65.5965 17.5439 66.1228 17.6447 66.5088 17.8509C66.8947 18.057 67.1754 18.3377 67.3509 18.7018C67.5263 19.0658 67.6184 19.4912 67.6316 19.9825C67.6447 20.4737 67.6097 21.0044 67.5263 21.5789L66.8772 26.2807H64.2456L64.8246 22.1053C64.8597 21.8596 64.8904 21.6053 64.9123 21.3421C64.9342 21.0789 64.9167 20.8377 64.8597 20.614C64.8026 20.3904 64.6886 20.2105 64.5263 20.0702C64.364 19.9298 64.1096 19.8596 63.7719 19.8596C63.4342 19.8596 63.1491 19.9211 62.9211 20.0439C62.693 20.1667 62.5088 20.3289 62.3684 20.5351C62.2281 20.7412 62.1228 20.9693 62.0526 21.2281C61.9825 21.4868 61.9298 21.7544 61.8947 22.0351L61.2982 26.2807H58.6667L59.8596 17.7544Z" fill="var(--fill-0, white)"/>
<path id="Vector_7" d="M21 37.9474C20.8114 37.6667 20.5395 37.4605 20.1754 37.3246C19.8114 37.1886 19.4605 37.1228 19.1228 37.1228C18.9254 37.1228 18.7149 37.1447 18.4912 37.193C18.2675 37.2412 18.0614 37.3114 17.8684 37.4123C17.6754 37.5132 17.5088 37.6447 17.3684 37.807C17.2281 37.9693 17.1404 38.1711 17.1053 38.4035C17.0702 38.6842 17.1184 38.9167 17.2544 39.0965C17.3904 39.2763 17.5833 39.4298 17.8333 39.5526C18.0833 39.6754 18.3772 39.7851 18.7105 39.8772C19.0439 39.9693 19.3816 40.0746 19.7193 40.193C20.057 40.3114 20.3904 40.4518 20.7105 40.614C21.0307 40.7763 21.3114 40.9868 21.5439 41.2368C21.7763 41.4868 21.9518 41.8026 22.0614 42.1842C22.1711 42.5658 22.1886 43.0219 22.1053 43.5614C22.0132 44.25 21.7982 44.8553 21.4649 45.3684C21.1316 45.8816 20.7237 46.3114 20.2368 46.6491C19.75 46.9868 19.2061 47.2412 18.6053 47.4035C18.0044 47.5658 17.3816 47.6491 16.7368 47.6491C15.9298 47.6491 15.1974 47.5263 14.5439 47.2807C13.8904 47.0351 13.2982 46.636 12.7719 46.0877L15.0351 43.9474C15.2675 44.3202 15.5833 44.6096 15.9737 44.8158C16.364 45.0219 16.7895 45.1228 17.2456 45.1228C17.4693 45.1228 17.6974 45.0965 17.9298 45.0439C18.1623 44.9912 18.3816 44.9123 18.5789 44.807C18.7763 44.7018 18.943 44.5658 19.0789 44.4035C19.2149 44.2412 19.2982 44.0482 19.3333 43.8246C19.3904 43.4518 19.2895 43.1535 19.0263 42.9386C18.7632 42.7237 18.4254 42.5395 18.0175 42.386C17.6096 42.2325 17.1623 42.0833 16.6842 41.9298C16.2061 41.7763 15.7675 41.5746 15.3684 41.3158C14.9693 41.057 14.6579 40.7193 14.4298 40.2982C14.2018 39.8772 14.136 39.3202 14.2281 38.6316C14.3202 37.9649 14.5351 37.3816 14.8684 36.8772C15.2018 36.3728 15.614 35.9518 16.1053 35.614C16.5965 35.2763 17.1403 35.0219 17.7368 34.8509C18.3333 34.6798 18.9342 34.5965 19.5439 34.5965C20.2456 34.5965 20.9079 34.6974 21.5351 34.8947C22.1623 35.0921 22.7018 35.4254 23.1579 35.8947L21 37.9474Z" fill="var(--fill-0, white)"/>
<path id="Vector_8" d="M29.8596 41.5614C29.7544 41.3728 29.5921 41.2193 29.3772 41.0965C29.1623 40.9737 28.9167 40.9123 28.6491 40.9123C27.9825 40.9123 27.4386 41.1096 27.0175 41.5088C26.5965 41.9079 26.3377 42.4254 26.2456 43.0702C26.1535 43.7149 26.2588 44.2325 26.5702 44.6316C26.8816 45.0307 27.3684 45.2281 28.0351 45.2281C28.3289 45.2281 28.5921 45.1623 28.8246 45.0351C29.057 44.9079 29.2632 44.7544 29.4386 44.5789L30.9123 46.4035C30.4342 46.8246 29.9079 47.1184 29.3333 47.2895C28.7588 47.4605 28.2237 47.5439 27.7193 47.5439C27.0658 47.5439 26.4605 47.4386 25.9123 47.2281C25.364 47.0175 24.9035 46.7149 24.5351 46.3246C24.1667 45.9342 23.8991 45.4605 23.7281 44.9123C23.557 44.364 23.5219 43.75 23.614 43.0702C23.7061 42.3903 23.9167 41.7763 24.2368 41.2281C24.557 40.6798 24.9605 40.2061 25.4386 39.8158C25.9167 39.4254 26.4605 39.1228 27.0702 38.9123C27.6798 38.7018 28.3114 38.5965 28.9649 38.5965C29.4693 38.5965 29.9868 38.6798 30.5175 38.8509C31.0482 39.0219 31.4912 39.3158 31.8421 39.7368L29.8596 41.5614Z" fill="var(--fill-0, white)"/>
<path id="Vector_9" d="M40 45.8596C39.5088 46.3991 38.9211 46.8114 38.2368 47.1053C37.5526 47.3991 36.864 47.5439 36.1754 47.5439C35.4868 47.5439 34.9167 47.4386 34.3684 47.2281C33.8202 47.0175 33.3596 46.7149 32.9912 46.3246C32.6228 45.9342 32.3553 45.4605 32.1842 44.9123C32.0132 44.364 31.9781 43.75 32.0702 43.0702C32.1623 42.3903 32.3728 41.7763 32.693 41.2281C33.0132 40.6798 33.4167 40.2061 33.8947 39.8158C34.3728 39.4254 34.9167 39.1228 35.5263 38.9123C36.136 38.7018 36.7675 38.5965 37.4211 38.5965C38.0307 38.5965 38.5658 38.7018 39.0351 38.9123C39.5044 39.1228 39.8816 39.4254 40.1754 39.8158C40.4693 40.2061 40.6711 40.6798 40.7807 41.2281C40.8904 41.7763 40.8991 42.3903 40.807 43.0702L40.6842 43.8947H34.5789C34.614 44.3991 34.7851 44.7982 35.0965 45.0965C35.4079 45.3947 35.8202 45.5439 36.3333 45.5439C36.7675 45.5439 37.1447 45.4474 37.4649 45.2544C37.7851 45.0614 38.0833 44.8114 38.3509 44.5088L40 45.8596ZM38.2982 42.1053C38.3684 41.6623 38.2763 41.2807 38.0175 40.9649C37.7588 40.6491 37.3904 40.4912 36.9123 40.4912C36.6184 40.4912 36.3553 40.5395 36.1228 40.6316C35.8904 40.7237 35.6842 40.8465 35.5088 40.9912C35.3333 41.136 35.1886 41.307 35.0702 41.5C34.9518 41.693 34.8728 41.8947 34.8246 42.1053H38.2982Z" fill="var(--fill-0, white)"/>
<path id="Vector_10" d="M43 38.807H45.5263L45.3684 39.9649H45.4035C45.5088 39.8026 45.6491 39.636 45.8246 39.4737C46 39.3114 46.1974 39.1623 46.421 39.0351C46.6447 38.9079 46.8947 38.8026 47.1754 38.7193C47.4561 38.636 47.7544 38.5965 48.0702 38.5965C48.7368 38.5965 49.2632 38.6974 49.6491 38.9035C50.0351 39.1096 50.3158 39.3903 50.4912 39.7544C50.6667 40.1184 50.7588 40.5439 50.7719 41.0351C50.7851 41.5263 50.75 42.057 50.6667 42.6316L50.0175 47.3333H47.386L47.9649 43.1579C48 42.9123 48.0307 42.6579 48.0526 42.3947C48.0746 42.1316 48.057 41.8903 48 41.6667C47.943 41.443 47.8289 41.2632 47.6667 41.1228C47.5044 40.9825 47.25 40.9123 46.9123 40.9123C46.5746 40.9123 46.2895 40.9737 46.0614 41.0965C45.8333 41.2193 45.6491 41.3816 45.5088 41.5877C45.3684 41.7939 45.2632 42.0219 45.193 42.2807C45.1228 42.5395 45.0702 42.807 45.0351 43.0877L44.4386 47.3333H41.807L43 38.807Z" fill="var(--fill-0, white)"/>
<path id="Vector_11" d="M58.5789 40.9123H56.2632L55.8596 43.7544C55.8246 43.9868 55.807 44.2018 55.807 44.3947C55.807 44.5877 55.8377 44.7544 55.9035 44.8947C55.9693 45.0351 56.0789 45.1447 56.2368 45.2193C56.3947 45.2939 56.614 45.3333 56.8947 45.3333C57.0351 45.3333 57.2193 45.3202 57.4474 45.2895C57.6754 45.2588 57.8553 45.193 57.9825 45.0877L57.6842 47.2807C57.3772 47.386 57.0658 47.4561 56.7456 47.4912C56.4254 47.5263 56.1096 47.5439 55.807 47.5439C55.364 47.5439 54.9605 47.4956 54.5965 47.4035C54.2325 47.3114 53.9254 47.1623 53.6754 46.9561C53.4254 46.75 53.2412 46.4868 53.1316 46.1579C53.0219 45.8289 52.9956 45.4342 53.0526 44.9649L53.6316 40.9123H51.9474L52.2456 38.807H53.9298L54.2807 36.2807H56.9123L56.5614 38.807H58.8772L58.5789 40.9123Z" fill="var(--fill-0, white)"/>
<path id="Vector_12" d="M67.2807 45.8596C66.7895 46.3991 66.2018 46.8114 65.5175 47.1053C64.8333 47.3991 64.1447 47.5439 63.4561 47.5439C62.7675 47.5439 62.1974 47.4386 61.6491 47.2281C61.1009 47.0175 60.6403 46.7149 60.2719 46.3246C59.9035 45.9342 59.636 45.4605 59.4649 44.9123C59.2939 44.364 59.2588 43.75 59.3509 43.0702C59.443 42.3903 59.6535 41.7763 59.9737 41.2281C60.2939 40.6798 60.6974 40.2061 61.1754 39.8158C61.6535 39.4254 62.1974 39.1228 62.807 38.9123C63.4167 38.7018 64.0482 38.5965 64.7018 38.5965C65.3114 38.5965 65.8465 38.7018 66.3158 38.9123C66.7851 39.1228 67.1623 39.4254 67.4561 39.8158C67.75 40.2061 67.9517 40.6798 68.0614 41.2281C68.171 41.7763 68.1798 42.3903 68.0877 43.0702L67.9649 43.8947H61.8596C61.8947 44.3991 62.0658 44.7982 62.3772 45.0965C62.6886 45.3947 63.1009 45.5439 63.614 45.5439C64.0482 45.5439 64.4254 45.4474 64.7456 45.2544C65.0658 45.0614 65.364 44.8114 65.6316 44.5088L67.2807 45.8596ZM65.5789 42.1053C65.6491 41.6623 65.557 41.2807 65.2982 40.9649C65.0395 40.6491 64.671 40.4912 64.193 40.4912C63.8991 40.4912 63.636 40.5395 63.4035 40.6316C63.171 40.7237 62.9649 40.8465 62.7895 40.9912C62.614 41.136 62.4693 41.307 62.3509 41.5C62.2325 41.693 62.1535 41.8947 62.1053 42.1053H65.5789Z" fill="var(--fill-0, white)"/>
<path id="Vector_13" d="M78.0351 47.3333H75.614L75.7544 46.2105H75.7193C75.6009 46.364 75.4474 46.5175 75.2544 46.6754C75.0614 46.8333 74.8421 46.9781 74.5965 47.1053C74.3509 47.2325 74.0833 47.3377 73.7982 47.4211C73.5132 47.5044 73.2237 47.5439 72.9298 47.5439C72.2982 47.5439 71.7412 47.4342 71.2544 47.2193C70.7675 47.0044 70.3684 46.6974 70.0526 46.307C69.7368 45.9167 69.5175 45.4518 69.3947 44.9123C69.2719 44.3728 69.2588 43.7851 69.3509 43.1404C69.4342 42.5439 69.6009 41.9737 69.8596 41.4298C70.1184 40.886 70.443 40.4035 70.8333 39.9825C71.2237 39.5614 71.6798 39.2237 72.193 38.9737C72.7061 38.7237 73.2675 38.5965 73.8772 38.5965C74.4254 38.5965 74.9298 38.6798 75.386 38.8509C75.8421 39.0219 76.1886 39.3114 76.4211 39.7193H76.4561L77.2632 34.0702H79.8947L78.0351 47.3333ZM76.2105 43.0702C76.3026 42.4254 76.193 41.9079 75.8772 41.5088C75.5614 41.1096 75.0702 40.9123 74.4035 40.9123C73.7368 40.9123 73.193 41.1096 72.7719 41.5088C72.3509 41.9079 72.0921 42.4254 72 43.0702C71.9079 43.7149 72.0132 44.2325 72.3246 44.6316C72.636 45.0307 73.1228 45.2281 73.7895 45.2281C74.4561 45.2281 75.0044 45.0307 75.4298 44.6316C75.8553 44.2325 76.1184 43.7149 76.2105 43.0702Z" fill="var(--fill-0, white)"/>
<path id="Vector_14" d="M17.3509 58.386H13.807L14.1404 55.9649H23.9649L23.6316 58.386H20.0877L18.6842 68.386H15.9474L17.3509 58.386Z" fill="var(--fill-0, white)"/>
<path id="Vector_15" d="M29.5965 66.9123C29.1053 67.4518 28.5175 67.864 27.8333 68.1579C27.1491 68.4518 26.4605 68.5965 25.7719 68.5965C25.0833 68.5965 24.5132 68.4912 23.9649 68.2807C23.4167 68.0702 22.9561 67.7675 22.5877 67.3772C22.2193 66.9868 21.9518 66.5132 21.7807 65.9649C21.6096 65.4167 21.5746 64.8026 21.6667 64.1228C21.7588 63.443 21.9693 62.8289 22.2895 62.2807C22.6096 61.7325 23.0132 61.2588 23.4912 60.8684C23.9693 60.4781 24.5132 60.1754 25.1228 59.9649C25.7325 59.7544 26.364 59.6491 27.0175 59.6491C27.6272 59.6491 28.1623 59.7544 28.6316 59.9649C29.1009 60.1754 29.4781 60.4781 29.7719 60.8684C30.0658 61.2588 30.2675 61.7325 30.3772 62.2807C30.4868 62.8289 30.4956 63.443 30.4035 64.1228L30.2807 64.9474H24.1754C24.2105 65.4518 24.3816 65.8509 24.693 66.1491C25.0044 66.4474 25.4167 66.5965 25.9298 66.5965C26.364 66.5965 26.7412 66.5 27.0614 66.307C27.3816 66.114 27.6798 65.864 27.9474 65.5614L29.5965 66.9123ZM27.8947 63.1579C27.9649 62.7149 27.8728 62.3333 27.614 62.0175C27.3553 61.7018 26.9868 61.5439 26.5088 61.5439C26.2149 61.5439 25.9518 61.5921 25.7193 61.6842C25.4868 61.7763 25.2807 61.8991 25.1053 62.0439C24.9298 62.1886 24.7851 62.3596 24.6667 62.5526C24.5482 62.7456 24.4693 62.9474 24.4211 63.1579H27.8947Z" fill="var(--fill-0, white)"/>
<path id="Vector_16" d="M36.8947 67.3158H36.8596C36.5088 67.7719 36.0746 68.1009 35.5614 68.2982C35.0482 68.4956 34.5219 68.5965 33.9825 68.5965C33.5833 68.5965 33.2105 68.5395 32.8596 68.4298C32.5088 68.3202 32.2061 68.1535 31.9561 67.9298C31.7061 67.7061 31.5219 67.4342 31.4035 67.1053C31.2851 66.7763 31.2588 66.3991 31.3158 65.9649C31.4211 65.2281 31.6974 64.6579 32.1491 64.2544C32.6009 63.8509 33.1316 63.5526 33.7456 63.3597C34.3597 63.1667 35.0044 63.0526 35.6754 63.0175C36.3465 62.9825 36.9605 62.9649 37.5088 62.9649C37.5658 62.4956 37.4518 62.1272 37.1579 61.8509C36.864 61.5746 36.4912 61.4386 36.0351 61.4386C35.5789 61.4386 35.1974 61.5307 34.8158 61.7105C34.4342 61.8904 34.0833 62.1403 33.7544 62.4561L32.5614 61.0175C33.1096 60.5614 33.7281 60.2193 34.4123 59.9912C35.0965 59.7632 35.7895 59.6491 36.4912 59.6491C37.2632 59.6491 37.886 59.7456 38.3596 59.9386C38.8333 60.1316 39.193 60.4167 39.4386 60.7895C39.6842 61.1623 39.8289 61.6228 39.8684 62.1667C39.9079 62.7105 39.8772 63.3377 39.7719 64.0526L39.1754 68.386H36.7544L36.8947 67.3158ZM36.614 64.6491C36.4167 64.6491 36.1667 64.6579 35.8684 64.6754C35.5702 64.693 35.2763 64.7412 34.9912 64.8246C34.7061 64.9079 34.4518 65.0307 34.2368 65.193C34.0219 65.3553 33.8947 65.5833 33.8596 65.8772C33.8377 66.0395 33.8553 66.1798 33.9123 66.2895C33.9693 66.3991 34.0526 66.4956 34.1579 66.5789C34.2632 66.6623 34.3904 66.7193 34.5351 66.7544C34.6798 66.7895 34.8246 66.807 34.9649 66.807C35.2237 66.807 35.4781 66.7719 35.7281 66.7018C35.9781 66.6316 36.2061 66.5307 36.4123 66.4035C36.6184 66.2763 36.7895 66.1096 36.9298 65.9123C37.0702 65.7149 37.1579 65.4781 37.193 65.2105L37.2632 64.6491H36.614Z" fill="var(--fill-0, white)"/>
</g>
</g>
<defs>
<clipPath id="clip0_0_12">
<rect width="100" height="100" fill="white"/>
</clipPath>
</defs>
</svg>
