<svg preserveAspectRatio="none" width="100%" height="100%" overflow="visible" style="display: block;" viewBox="0 0 123 123" fill="none" xmlns="http://www.w3.org/2000/svg">
<g id="Laag_3" clip-path="url(#clip0_0_59)">
<path id="Vector" d="M123 0H0V123H123V0Z" fill="var(--fill-0, #010101)"/>
<g id="Group">
<path id="Vector_2" d="M18.9234 17.0469H22.2897L20.585 29.2174H26.8213L26.3897 32.3248H16.7871L18.9234 17.0469Z" fill="var(--fill-0, white)"/>
<path id="Vector_3" d="M38.0003 30.5079C37.396 31.1715 36.6731 31.6786 35.8316 32.04C34.99 32.4015 34.143 32.5795 33.296 32.5795C32.4491 32.5795 31.7478 32.45 31.0734 32.1911C30.3991 31.9321 29.8326 31.5599 29.3795 31.0797C28.9263 30.5996 28.5972 30.017 28.3868 29.3426C28.1764 28.6683 28.1333 27.913 28.2466 27.0769C28.3599 26.2407 28.6188 25.4854 29.0126 24.8111C29.4064 24.1367 29.9028 23.5541 30.4908 23.074C31.0788 22.5938 31.7478 22.2216 32.4976 21.9626C33.2475 21.7037 34.0243 21.5742 34.8281 21.5742C35.578 21.5742 36.2362 21.7037 36.8134 21.9626C37.3906 22.2216 37.8546 22.5938 38.216 23.074C38.5775 23.5541 38.8257 24.1367 38.9605 24.8111C39.0954 25.4854 39.1062 26.2407 38.9929 27.0769L38.8418 28.0911H31.3324C31.3755 28.7115 31.5859 29.2024 31.9689 29.5692C32.352 29.9361 32.8591 30.1195 33.4903 30.1195C34.0243 30.1195 34.4883 30.0008 34.8821 29.7634C35.2759 29.5261 35.6428 29.2186 35.9718 28.8463L38.0003 30.5079ZM35.9071 25.89C35.9934 25.3451 35.8801 24.8758 35.5618 24.4874C35.2435 24.099 34.7904 23.9047 34.2024 23.9047C33.8409 23.9047 33.5172 23.9641 33.2313 24.0774C32.9454 24.1907 32.6918 24.3417 32.476 24.5197C32.2603 24.6978 32.0822 24.9082 31.9366 25.1455C31.7909 25.3829 31.6938 25.6311 31.6345 25.89H35.9071Z" fill="var(--fill-0, white)"/>
<path id="Vector_4" d="M41.69 21.8332H44.7974L44.6032 23.2574H44.6463C44.7758 23.0578 44.9484 22.8528 45.1642 22.6532C45.38 22.4536 45.6228 22.2701 45.8979 22.1137C46.1731 21.9572 46.4806 21.8278 46.8258 21.7253C47.1711 21.6228 47.5379 21.5742 47.9263 21.5742C48.66 21.5742 49.2912 21.7253 49.8253 22.0274C50.3594 22.3295 50.7154 22.8042 50.9042 23.4516C51.379 22.7772 51.9023 22.2917 52.4687 22.0058C53.0352 21.7199 53.7095 21.5742 54.4863 21.5742C55.1931 21.5742 55.7649 21.6929 56.2127 21.9303C56.6604 22.1676 56.9949 22.4913 57.2269 22.9013C57.4588 23.3113 57.5937 23.7915 57.6369 24.3471C57.68 24.9028 57.6584 25.4962 57.5721 26.1274L56.709 32.3205H53.4721L54.3137 26.2137C54.3838 25.7228 54.3407 25.302 54.1842 24.9513C54.0278 24.6007 53.6825 24.4226 53.1484 24.4226C52.7762 24.4226 52.4525 24.482 52.1882 24.6061C51.9238 24.7301 51.6973 24.8974 51.5084 25.1132C51.3196 25.329 51.1794 25.5825 51.0769 25.8684C50.9744 26.1544 50.9042 26.4565 50.8611 26.7747L50.0842 32.3205H46.8474L47.6242 26.7747C47.6512 26.5859 47.6782 26.3594 47.6998 26.0842C47.7213 25.8091 47.7052 25.5501 47.6566 25.3074C47.608 25.0646 47.4948 24.8542 47.3221 24.6816C47.1495 24.509 46.8744 24.4226 46.5021 24.4226C46.0867 24.4226 45.7361 24.4982 45.4556 24.6492C45.175 24.8003 44.9484 24.9999 44.7758 25.2534C44.6032 25.507 44.4737 25.7875 44.3874 26.1058C44.3011 26.4241 44.2363 26.7532 44.1932 27.0984L43.4595 32.3205H40.2227L41.69 21.8332Z" fill="var(--fill-0, white)"/>
<path id="Vector_5" d="M59.3423 27.0769C59.4556 26.2407 59.7145 25.4854 60.1083 24.8111C60.5021 24.1367 60.9985 23.5541 61.5865 23.074C62.1745 22.5938 62.8435 22.2216 63.5933 21.9626C64.3432 21.7037 65.12 21.5742 65.9239 21.5742C66.7277 21.5742 67.4721 21.7037 68.1465 21.9626C68.8208 22.2216 69.3927 22.5938 69.8512 23.074C70.3098 23.5541 70.6442 24.1367 70.8546 24.8111C71.065 25.4854 71.1082 26.2407 70.9949 27.0769C70.8816 27.913 70.6227 28.6683 70.2181 29.3426C69.8135 30.017 69.3171 30.5996 68.7291 31.0797C68.1411 31.5599 67.4721 31.9321 66.7223 32.1911C65.9724 32.45 65.1956 32.5795 64.3917 32.5795C63.5879 32.5795 62.8435 32.45 62.1691 32.1911C61.4948 31.9321 60.9283 31.5599 60.4752 31.0797C60.022 30.5996 59.6929 30.017 59.4825 29.3426C59.2721 28.6683 59.229 27.913 59.3423 27.0769ZM62.5791 27.0769C62.4658 27.8699 62.5953 28.5065 62.9783 28.9974C63.3614 29.4883 63.9602 29.7311 64.7802 29.7311C65.6002 29.7311 66.2745 29.4883 66.7978 28.9974C67.3211 28.5065 67.6448 27.8699 67.7581 27.0769C67.8714 26.2838 67.7365 25.6472 67.3481 25.1563C66.9596 24.6654 66.3554 24.4226 65.5354 24.4226C64.7154 24.4226 64.0465 24.6654 63.5286 25.1563C63.0107 25.6472 62.6924 26.2838 62.5791 27.0769Z" fill="var(--fill-0, white)"/>
<path id="Vector_6" d="M73.6275 21.8332H76.7349L76.5407 23.2574H76.5838C76.7133 23.0578 76.8859 22.8528 77.1017 22.6532C77.3175 22.4536 77.5603 22.2701 77.8354 22.1137C78.1106 21.9572 78.4181 21.8278 78.7633 21.7253C79.1086 21.6228 79.4754 21.5742 79.8638 21.5742C80.6838 21.5742 81.3312 21.6983 81.8059 21.9519C82.2807 22.2054 82.6259 22.5507 82.8417 22.9984C83.0575 23.4462 83.1708 23.9695 83.187 24.5737C83.2032 25.1779 83.16 25.8307 83.0575 26.5374L82.2591 32.3205H79.0223L79.7344 27.1847C79.7775 26.8826 79.8153 26.5697 79.8423 26.2461C79.8692 25.9224 79.8477 25.6257 79.7775 25.3505C79.7074 25.0754 79.5671 24.8542 79.3675 24.6816C79.1679 24.509 78.855 24.4226 78.4396 24.4226C78.0242 24.4226 77.6736 24.4982 77.3931 24.6492C77.1125 24.8003 76.8859 24.9999 76.7133 25.2534C76.5407 25.507 76.4112 25.7875 76.3249 26.1058C76.2386 26.4241 76.1738 26.7532 76.1307 27.0984L75.397 32.3205H72.1602L73.6275 21.8332Z" fill="var(--fill-0, white)"/>
<path id="Vector_7" d="M25.8295 46.6724C25.5975 46.3271 25.2631 46.0735 24.8153 45.9063C24.3675 45.7391 23.936 45.6582 23.5206 45.6582C23.2778 45.6582 23.0189 45.6851 22.7437 45.7445C22.4686 45.8038 22.215 45.8901 21.9777 46.0142C21.7403 46.1383 21.5353 46.3001 21.3627 46.4997C21.19 46.6993 21.0821 46.9475 21.039 47.2334C20.9958 47.5787 21.0552 47.8646 21.2224 48.0858C21.3896 48.307 21.627 48.4958 21.9345 48.6468C22.242 48.7979 22.6035 48.9328 23.0135 49.046C23.4235 49.1593 23.8389 49.2888 24.2542 49.4345C24.6696 49.5801 25.0796 49.7528 25.4735 49.9524C25.8673 50.152 26.2125 50.4109 26.4985 50.7184C26.7844 51.0259 27.0002 51.4143 27.135 51.8837C27.2699 52.353 27.2915 52.9141 27.189 53.5776C27.0757 54.4246 26.8114 55.1691 26.4014 55.8003C25.9914 56.4314 25.4896 56.9601 24.8908 57.3755C24.292 57.7909 23.6231 58.1038 22.884 58.3034C22.1449 58.503 21.3789 58.6055 20.5858 58.6055C19.5932 58.6055 18.6923 58.4545 17.8885 58.1524C17.0846 57.8503 16.3564 57.3593 15.709 56.685L18.4927 54.0524C18.7786 54.5109 19.167 54.867 19.6471 55.1205C20.1273 55.3741 20.6506 55.4982 21.2116 55.4982C21.4867 55.4982 21.7673 55.4658 22.0532 55.401C22.3391 55.3363 22.6089 55.2392 22.8516 55.1097C23.0944 54.9803 23.2994 54.813 23.4666 54.6134C23.6339 54.4138 23.7364 54.1764 23.7795 53.9013C23.8496 53.4428 23.7256 53.0759 23.4019 52.8116C23.0782 52.5472 22.6628 52.3207 22.1611 52.1318C21.6594 51.943 21.1091 51.7596 20.5211 51.5708C19.9331 51.382 19.3936 51.1338 18.9027 50.8155C18.4117 50.4972 18.0287 50.0818 17.7482 49.5639C17.4677 49.046 17.3867 48.3609 17.5 47.5139C17.6133 46.6939 17.8777 45.9764 18.2877 45.356C18.6977 44.7357 19.2048 44.2178 19.809 43.8024C20.4132 43.387 21.0821 43.0741 21.8158 42.8637C22.5495 42.6533 23.2886 42.5508 24.0385 42.5508C24.9016 42.5508 25.7162 42.6749 26.4877 42.9176C27.2591 43.1604 27.9227 43.5704 28.4837 44.1476L25.8295 46.6724Z" fill="var(--fill-0, white)"/>
<path id="Vector_8" d="M36.7275 51.1195C36.598 50.8875 36.3984 50.6987 36.1341 50.5477C35.8697 50.3966 35.5676 50.3211 35.2386 50.3211C34.4186 50.3211 33.7496 50.5638 33.2317 51.0548C32.7138 51.5457 32.3955 52.1823 32.2822 52.9753C32.169 53.7683 32.2984 54.4049 32.6815 54.8958C33.0645 55.3867 33.6633 55.6295 34.4833 55.6295C34.8447 55.6295 35.1684 55.5486 35.4543 55.3921C35.7403 55.2357 35.9938 55.0469 36.2096 54.8311L38.0222 57.0753C37.4342 57.5932 36.7868 57.9546 36.0801 58.165C35.3734 58.3754 34.7153 58.4779 34.0949 58.4779C33.2911 58.4779 32.5466 58.3484 31.8722 58.0895C31.1979 57.8306 30.6315 57.4583 30.1783 56.9782C29.7251 56.4981 29.3961 55.9154 29.1857 55.2411C28.9753 54.5667 28.9321 53.8115 29.0454 52.9753C29.1587 52.1391 29.4176 51.3838 29.8115 50.7095C30.2053 50.0352 30.7016 49.4525 31.2896 48.9724C31.8776 48.4923 32.5466 48.12 33.2965 47.8611C34.0463 47.6021 34.8232 47.4727 35.627 47.4727C36.2474 47.4727 36.884 47.5752 37.5367 47.7856C38.1895 47.9959 38.7343 48.3574 39.1659 48.8753L36.7275 51.1195Z" fill="var(--fill-0, white)"/>
<path id="Vector_9" d="M49.1995 56.4063C48.5953 57.0699 47.8724 57.577 47.0308 57.9384C46.1892 58.2999 45.3422 58.4779 44.4953 58.4779C43.6483 58.4779 42.947 58.3484 42.2726 58.0895C41.5983 57.8306 41.0318 57.4583 40.5787 56.9782C40.1255 56.4981 39.7964 55.9154 39.5861 55.2411C39.3757 54.5667 39.3325 53.8115 39.4458 52.9753C39.5591 52.1391 39.818 51.3838 40.2118 50.7095C40.6057 50.0352 41.102 49.4525 41.69 48.9724C42.278 48.4923 42.947 48.12 43.6968 47.8611C44.4467 47.6021 45.2236 47.4727 46.0274 47.4727C46.7772 47.4727 47.4354 47.6021 48.0126 47.8611C48.5899 48.12 49.0538 48.4923 49.4153 48.9724C49.7767 49.4525 50.0249 50.0352 50.1597 50.7095C50.2946 51.3838 50.3054 52.1391 50.1921 52.9753L50.0411 53.9895H42.5316C42.5747 54.6099 42.7851 55.1008 43.1682 55.4677C43.5512 55.8345 44.0583 56.0179 44.6895 56.0179C45.2236 56.0179 45.6875 55.8992 46.0813 55.6619C46.4751 55.4245 46.842 55.117 47.1711 54.7448L49.1995 56.4063ZM47.1063 51.7884C47.1926 51.2436 47.0793 50.7742 46.7611 50.3858C46.4428 49.9974 45.9896 49.8032 45.4016 49.8032C45.0401 49.8032 44.7164 49.8625 44.4305 49.9758C44.1446 50.0891 43.8911 50.2402 43.6753 50.4182C43.4595 50.5962 43.2814 50.8066 43.1358 51.044C42.9901 51.2813 42.893 51.5295 42.8337 51.7884H47.1063Z" fill="var(--fill-0, white)"/>
<path id="Vector_10" d="M52.8892 47.7316H55.9966L55.8024 49.1558H55.8456C55.975 48.9562 56.1477 48.7512 56.3635 48.5516C56.5792 48.352 56.822 48.1686 57.0971 48.0121C57.3723 47.8557 57.6798 47.7262 58.025 47.6237C58.3703 47.5212 58.7371 47.4727 59.1256 47.4727C59.9456 47.4727 60.5929 47.5967 61.0677 47.8503C61.5424 48.1038 61.8877 48.4491 62.1035 48.8969C62.3192 49.3446 62.4325 49.8679 62.4487 50.4721C62.4649 51.0763 62.4217 51.7291 62.3192 52.4358L61.5208 58.219H58.284L58.9961 53.0832C59.0392 52.7811 59.077 52.4682 59.104 52.1445C59.131 51.8208 59.1094 51.5241 59.0392 51.249C58.9691 50.9738 58.8288 50.7527 58.6292 50.58C58.4296 50.4074 58.1167 50.3211 57.7013 50.3211C57.286 50.3211 56.9353 50.3966 56.6548 50.5477C56.3742 50.6987 56.1477 50.8983 55.975 51.1519C55.8024 51.4054 55.6729 51.6859 55.5866 52.0042C55.5003 52.3225 55.4356 52.6516 55.3924 52.9969L54.6587 58.219H51.4219L52.8892 47.7316Z" fill="var(--fill-0, white)"/>
<path id="Vector_11" d="M72.0533 50.3218H69.2049L68.7086 53.8176C68.6654 54.1036 68.6439 54.3679 68.6439 54.6053C68.6439 54.8426 68.6816 55.0476 68.7625 55.2203C68.8435 55.3929 68.9783 55.5278 69.1725 55.6195C69.3667 55.7112 69.6365 55.7597 69.9817 55.7597C70.1544 55.7597 70.381 55.7436 70.6615 55.7058C70.942 55.668 71.1632 55.5871 71.3196 55.4576L70.9528 58.155C70.5752 58.2845 70.1921 58.3708 69.7983 58.4139C69.4045 58.4571 69.0161 58.4787 68.6439 58.4787C68.099 58.4787 67.6027 58.4193 67.1549 58.3061C66.7071 58.1928 66.3295 58.0093 66.022 57.7558C65.7145 57.5022 65.4879 57.1786 65.3531 56.7739C65.2182 56.3693 65.1858 55.8838 65.256 55.3066L65.9681 50.3218H63.8965L64.2633 47.7324H66.3349L66.7665 44.625H70.0033L69.5717 47.7324H72.4202L72.0533 50.3218Z" fill="var(--fill-0, white)"/>
<path id="Vector_12" d="M82.7542 56.4063C82.1499 57.0699 81.4271 57.577 80.5855 57.9384C79.7439 58.2999 78.8969 58.4779 78.0499 58.4779C77.203 58.4779 76.5017 58.3484 75.8273 58.0895C75.153 57.8306 74.5865 57.4583 74.1334 56.9782C73.6802 56.4981 73.3511 55.9154 73.1407 55.2411C72.9303 54.5667 72.8872 53.8115 73.0005 52.9753C73.1138 52.1391 73.3727 51.3838 73.7665 50.7095C74.1603 50.0352 74.6567 49.4525 75.2447 48.9724C75.8327 48.4923 76.5017 48.12 77.2515 47.8611C78.0014 47.6021 78.7782 47.4727 79.5821 47.4727C80.3319 47.4727 80.9901 47.6021 81.5673 47.8611C82.1446 48.12 82.6085 48.4923 82.97 48.9724C83.3314 49.4525 83.5796 50.0352 83.7144 50.7095C83.8493 51.3838 83.8601 52.1391 83.7468 52.9753L83.5957 53.9895H76.0863C76.1294 54.6099 76.3398 55.1008 76.7228 55.4677C77.1059 55.8345 77.613 56.0179 78.2442 56.0179C78.7782 56.0179 79.2422 55.8992 79.636 55.6619C80.0298 55.4245 80.3967 55.117 80.7257 54.7448L82.7542 56.4063ZM80.661 51.7884C80.7473 51.2436 80.634 50.7742 80.3157 50.3858C79.9975 49.9974 79.5443 49.8032 78.9563 49.8032C78.5948 49.8032 78.2711 49.8625 77.9852 49.9758C77.6993 50.0891 77.4457 50.2402 77.23 50.4182C77.0142 50.5962 76.8361 50.8066 76.6905 51.044C76.5448 51.2813 76.4477 51.5295 76.3884 51.7884H80.661Z" fill="var(--fill-0, white)"/>
<path id="Vector_13" d="M95.982 58.2199H93.0041L93.1768 56.8389H93.1336C92.988 57.0277 92.7991 57.2165 92.5618 57.4107C92.3244 57.6049 92.0547 57.783 91.7526 57.9394C91.4505 58.0959 91.1214 58.2253 90.7707 58.3278C90.4201 58.4303 90.064 58.4789 89.7026 58.4789C88.9257 58.4789 88.2406 58.344 87.6418 58.0797C87.043 57.8153 86.552 57.4377 86.1636 56.9576C85.7752 56.4774 85.5055 55.9056 85.3544 55.242C85.2034 54.5785 85.1872 53.8556 85.3005 53.0626C85.403 52.3289 85.608 51.6276 85.9263 50.9586C86.2445 50.2897 86.6438 49.6963 87.1239 49.1784C87.604 48.6605 88.1651 48.2451 88.7963 47.9376C89.4274 47.6301 90.118 47.4736 90.8678 47.4736C91.5422 47.4736 92.1626 47.5761 92.7236 47.7865C93.2847 47.9969 93.7109 48.353 93.9968 48.8547H94.0399L95.0326 41.9062H98.2694L95.982 58.2199ZM93.7378 52.9762C93.8511 52.1832 93.7163 51.5466 93.3278 51.0557C92.9394 50.5648 92.3352 50.322 91.5152 50.322C90.6952 50.322 90.0263 50.5648 89.5084 51.0557C88.9905 51.5466 88.6722 52.1832 88.5589 52.9762C88.4456 53.7693 88.5751 54.4059 88.9581 54.8968C89.3411 55.3877 89.9399 55.6305 90.7599 55.6305C91.5799 55.6305 92.2543 55.3877 92.7776 54.8968C93.3009 54.4059 93.6245 53.7693 93.7378 52.9762Z" fill="var(--fill-0, white)"/>
<path id="Vector_14" d="M21.3414 71.8138H16.9824L17.3924 68.8359H29.4766L29.0666 71.8138H24.7077L22.9814 84.1138H19.6151L21.3414 71.8138Z" fill="var(--fill-0, white)"/>
<path id="Vector_15" d="M36.4026 82.3009C35.7984 82.9644 35.0755 83.4715 34.2339 83.833C33.3923 84.1944 32.5454 84.3724 31.6984 84.3724C30.8514 84.3724 30.1501 84.243 29.4758 83.984C28.8014 83.7251 28.235 83.3528 27.7818 82.8727C27.3287 82.3926 26.9996 81.8099 26.7892 81.1356C26.5788 80.4613 26.5356 79.706 26.6489 78.8698C26.7622 78.0336 27.0212 77.2784 27.415 76.604C27.8088 75.9297 28.3051 75.3471 28.8931 74.8669C29.4812 74.3868 30.1501 74.0146 30.9 73.7556C31.6498 73.4967 32.4267 73.3672 33.2305 73.3672C33.9804 73.3672 34.6385 73.4967 35.2158 73.7556C35.793 74.0146 36.2569 74.3868 36.6184 74.8669C36.9798 75.3471 37.228 75.9297 37.3629 76.604C37.4977 77.2784 37.5085 78.0336 37.3952 78.8698L37.2442 79.884H29.7347C29.7779 80.5044 29.9883 80.9953 30.3713 81.3622C30.7543 81.729 31.2614 81.9124 31.8926 81.9124C32.4267 81.9124 32.8906 81.7938 33.2844 81.5564C33.6783 81.319 34.0451 81.0115 34.3742 80.6393L36.4026 82.3009ZM34.3094 77.683C34.3958 77.1381 34.2825 76.6688 33.9642 76.2803C33.6459 75.8919 33.1927 75.6977 32.6047 75.6977C32.2433 75.6977 31.9196 75.7571 31.6337 75.8703C31.3477 75.9836 31.0942 76.1347 30.8784 76.3127C30.6626 76.4907 30.4846 76.7011 30.3389 76.9385C30.1933 77.1759 30.0962 77.424 30.0368 77.683H34.3094Z" fill="var(--fill-0, white)"/>
<path id="Vector_16" d="M45.3781 82.7972H45.335C44.9034 83.3582 44.3693 83.7628 43.7381 84.0056C43.107 84.2484 42.4596 84.3724 41.796 84.3724C41.3051 84.3724 40.8466 84.3023 40.415 84.1675C39.9834 84.0326 39.6112 83.8276 39.3037 83.5525C38.9962 83.2773 38.7696 82.9428 38.6239 82.5382C38.4783 82.1336 38.4459 81.6697 38.516 81.1356C38.6455 80.2293 38.9854 79.528 39.541 79.0317C40.0967 78.5353 40.7495 78.1685 41.5047 77.9311C42.26 77.6938 43.053 77.5535 43.8784 77.5103C44.7038 77.4672 45.4591 77.4456 46.1334 77.4456C46.2035 76.8684 46.0633 76.4152 45.7018 76.0753C45.3404 75.7355 44.8818 75.5682 44.3208 75.5682C43.7597 75.5682 43.2904 75.6815 42.821 75.9027C42.3517 76.1239 41.9201 76.4314 41.5155 76.8198L40.0481 75.0503C40.7225 74.4893 41.4831 74.0685 42.3247 73.788C43.1663 73.5075 44.0187 73.3672 44.8818 73.3672C45.8313 73.3672 46.5974 73.4859 47.18 73.7232C47.7626 73.9606 48.205 74.3113 48.5071 74.7698C48.8092 75.2284 48.9872 75.7948 49.0358 76.4638C49.0843 77.1327 49.0466 77.9042 48.9171 78.7835L48.1834 84.1135H45.2055L45.3781 82.7972ZM45.0329 79.5172C44.7901 79.5172 44.4826 79.528 44.1158 79.5496C43.7489 79.5711 43.3875 79.6305 43.0368 79.733C42.6862 79.8355 42.3733 79.9865 42.1089 80.1861C41.8446 80.3857 41.6881 80.6663 41.645 81.0277C41.618 81.2273 41.6396 81.3999 41.7097 81.5348C41.7799 81.6697 41.8824 81.7884 42.0118 81.8909C42.1413 81.9934 42.2977 82.0635 42.4758 82.1067C42.6538 82.1498 42.8318 82.1714 43.0045 82.1714C43.3227 82.1714 43.6356 82.1282 43.9431 82.0419C44.2506 81.9556 44.5312 81.8315 44.7847 81.6751C45.0383 81.5186 45.2487 81.3136 45.4213 81.0709C45.5939 80.8281 45.7018 80.5368 45.745 80.2077L45.8313 79.5172H45.0329Z" fill="var(--fill-0, white)"/>
</g>
</g>
<defs>
<clipPath id="clip0_0_59">
<rect width="123" height="123" fill="white"/>
</clipPath>
</defs>
</svg>
